<?xml version="1.0" encoding="utf-8"?>
<svg viewBox="81.07 73.8846 177.86 102.2307" width="177.86" height="102.231" xmlns="http://www.w3.org/2000/svg">
  <g data-v-0dd9719b="" fill="#f9bf4b" class="icon-text-wrapper icon-svg-group iconsvg" transform="matrix(1, 0, 0, 1, 81.07000732421875, 73.8846435546875)">
    <g class="iconsvg-imagesvg" transform="translate(58.92999267578125,0)">
      <g>
        <rect fill="#f9bf4b" fill-opacity="0" stroke-width="2" x="0" y="0" width="60" height="58.88472333994151" class="image-rect"/>
        <svg x="0" y="0" width="60" height="58.88472333994151" filtersec="colorsb7465023201" class="image-svg-svg primary" style="overflow: visible;">
          <svg xmlns="http://www.w3.org/2000/svg" viewBox="-0.0005839453660883009 -0.0009000053978525102 58.560585021972656 57.47209167480469">
            <title>c11</title>
            <g data-name="图层 2">
              <g data-name="Layer 1">
                <path d="M20.64 10.06a19.91 19.91 0 0 1 2.76-1.87 16.76 16.76 0 0 1 8.28-2 9 9 0 0 1 2.17.27 6.68 6.68 0 0 1 1.95.81 5 5 0 0 1 1.45 1.4 3.69 3.69 0 0 1 .59 2.13 5.48 5.48 0 0 1-.86 3 9.32 9.32 0 0 1-2.13 2.35C34 16.77 29.32 20 29.32 20a32.4 32.4 0 0 0 4.57-1.13 20.73 20.73 0 0 0 4.48-2 11.31 11.31 0 0 0 3.44-3.21 7.78 7.78 0 0 0 1.36-4.57A7.76 7.76 0 0 0 42 4.71a8.64 8.64 0 0 0-2.9-2.76 13.47 13.47 0 0 0-4-1.49l-.46-.08c-1 .33-2 .67-3 1a19.81 19.81 0 0 0-11 8.68z" fill="#ffe599"/>
                <path d="M18.51 2.85A32.13 32.13 0 0 0 11 8a31.39 31.39 0 0 0 1.18 18.41 28.17 28.17 0 0 1 1.12-5.35 24.56 24.56 0 0 1 3.85-7.51 19.74 19.74 0 0 1 3.45-3.51 19.81 19.81 0 0 1 11-8.67c1-.35 2-.69 3-1A21.19 21.19 0 0 0 30.77 0a26.85 26.85 0 0 0-12.26 2.85z" fill="#f9bf4b"/>
                <path d="M13.53 38.24A24 24 0 0 1 12 29.5a27.43 27.43 0 0 1 .19-3.06A31.39 31.39 0 0 1 11 8a32.2 32.2 0 0 0-2.31 2.38A35.84 35.84 0 0 0 .2 30a22 22 0 0 0 3.44 4.4c4.57 4.57 9.73 9.14 15.9 11.94a17.14 17.14 0 0 1-1.8-1.54 18.73 18.73 0 0 1-4.21-6.56z" fill="#ffe599"/>
                <path d="M57.83 40.64a25.18 25.18 0 0 1-5.16 4.07 39 39 0 0 1-6.29 3.08 40.61 40.61 0 0 1-6.79 1.95 34.45 34.45 0 0 1-6.56.68A24.74 24.74 0 0 1 24.35 49a18.78 18.78 0 0 1-4.81-2.62C13.36 43.54 8.21 39 3.64 34.4A22 22 0 0 1 .2 30a34.31 34.31 0 0 0-.2 3.6 27.19 27.19 0 0 0 .63 6c12.3 11.45 31 15.49 48 11.1a40.35 40.35 0 0 0 3.82-2.73A26.48 26.48 0 0 0 58.56 41z" fill="#f9bf4b"/>
                <path d="M.63 39.55a21.55 21.55 0 0 0 1.31 4l.06.15c9.56 8 22.13 10.26 34.5 12.22a46.21 46.21 0 0 0 7.71-2.83 42 42 0 0 0 4.42-2.43C31.59 55 12.94 51 .63 39.55z" fill="#ffe599"/>
                <path d="M7.38 51.09a23.84 23.84 0 0 0 8.15 4.75 30.38 30.38 0 0 0 10.09 1.63 40.79 40.79 0 0 0 9.28-1.13c.54-.13 1.08-.28 1.61-.42C24.14 54 11.57 51.66 2 43.7a21.82 21.82 0 0 0 5.38 7.39z" fill="#f9bf4b"/>
              </g>
            </g>
          </svg>
        </svg>
      </g>
    </g>
    <g transform="translate(0,65.88472366333008)">
      <g data-gra="path-name" fill-rule="" class="tp-name iconsvg-namesvg" transform="translate(0,0)">
        <g transform="scale(1)">
          <g>
            <path d="M12.88-21.03C14.71-21.03 16.45-20.62 18.12-19.81L18.47-20.56C16.73-21.43 14.86-21.86 12.88-21.86 9.33-21.86 6.46-20.44 4.52-18.65 2.64-16.91 1.07-14.33 1.07-10.95 1.07-7.45 2.72-4.83 4.69-3.09 6.62-1.38 9.46 0 12.88 0 14.86 0 16.73-0.44 18.47-1.31L18.12-2.05C16.45-1.24 14.71-0.83 12.88-0.83 10.09-0.83 7.88-1.72 6.16-2.94L6.16-18.92C7.88-20.14 10.09-21.03 12.88-21.03ZM24.36-7.26L27.69-15.65 31.29-7.26ZM27.25-16.75L20.61 0 21.51 0 24.04-6.43 31.62-6.43 34.36 0 39.41 0 30.1-21.86 25.05-21.86ZM47.27 0L47.27-21.03 53.69-21.03 53.69-21.86 36.29-21.86 36.29-21.03 42.72-21.03 42.72 0ZM66.81 0L66.81-21.03 73.24-21.03 73.24-21.86 55.84-21.86 55.84-21.03 62.26-21.03 62.26 0ZM89.54 0L89.54-4.88 96.77-21.86 91.71-21.86 85.34-6.9 79.45-21.86 75.38-21.86 75.38-21.03 78.92-21.03 84.93-5.74 84.93 0ZM110.72-0.83C107.93-0.83 105.72-1.72 104-2.94L104-18.92C105.72-20.14 107.93-21.03 110.72-21.03 112.54-21.03 114.29-20.62 115.95-19.81L116.31-20.56C114.57-21.43 112.7-21.86 110.72-21.86 107.17-21.86 104.33-20.47 102.39-18.68 100.52-16.92 98.91-14.34 98.91-10.95 98.91-7.45 100.56-4.83 102.52-3.09 104.46-1.38 107.3 0 110.72 0 114.07 0 116.78-1.25 118.72-2.92L119.46-0.3 120.27-0.3 120.27-18.38 111.76-18.38 111.76-17.55 115.69-17.55 115.69-1.93C114.29-1.25 112.67-0.83 110.72-0.83ZM129.46-6.51C128.59-6.65 127.76-6.94 126.99-7.38L126.99-10.62C127.68-9.23 128.51-7.86 129.46-6.51ZM137.85-13.74C137.85-12.73 137.65-11.78 137.27-10.9 136.21-8.5 133.92-6.43 130.53-6.43 129.12-8.35 127.94-10.39 126.99-12.55L126.99-20.11C128.06-20.72 129.24-21.03 130.53-21.03 131.54-21.03 132.49-20.84 133.37-20.45 135.78-19.4 137.85-17.14 137.85-13.74ZM126.99 0L126.99-6.43C127.9-6.01 128.91-5.71 130.11-5.62 131.7-3.52 133.52-1.65 135.56 0L136.9 0C134.75-1.67 132.82-3.48 131.16-5.62 132.19-5.7 133.16-5.97 134.07-6.43 136.55-7.66 138.65-10.1 138.65-13.74 138.65-14.85 138.44-15.9 138.01-16.9 136.86-19.58 134.29-21.86 130.53-21.86 129.42-21.86 128.37-21.65 127.38-21.22 124.69-20.07 122.41-17.51 122.41-13.74L122.41 0ZM142.96-7.26L146.3-15.65 149.9-7.26ZM145.85-16.75L139.22 0 140.11 0 142.64-6.43 150.22-6.43 152.96 0 158.02 0 148.71-21.86 143.65-21.86ZM174.35-17.4L174.35 0 178.93 0 178.93-22.19C174.41-19.46 170.83-15.48 169.53-9.55 168.29-15.51 164.63-19.44 160.16-22.19L160.16 0 164.74 0 164.74-17.4C167.18-14.61 169.14-10.57 169.14-5.62L169.95-5.62C169.95-10.57 171.9-14.6 174.35-17.4Z" transform="translate(-1.0700000524520874, 22.190000534057617)"/>
          </g>
        </g>
      </g>
      <g data-gra="path-slogan" fill-rule="" class="tp-slogan iconsvg-slogansvg" fill="#f9bf4b" transform="translate(30.3699951171875,28.190000534057617)">
        <g transform="scale(1, 1)">
          <g transform="scale(1)">
            <path d="M1.08-7.87L1.08 0L2.08 0L2.08-7.87ZM4.24-7.87L4.24 0L5.18 0L5.18-4.12C5.18-4.53 5.17-4.95 5.14-5.36C5.11-5.77 5.08-6.18 5.05-6.58L5.10-6.58L5.95-4.96L8.81 0L9.84 0L9.84-7.87L8.89-7.87L8.89-3.80C8.89-3.39 8.91-2.97 8.93-2.54C8.96-2.11 8.99-1.70 9.01-1.30L8.96-1.30L8.11-2.93L5.27-7.87ZM12.02-1.72L11.42-1.02C11.77-0.66 12.18-0.38 12.65-0.17C13.12 0.04 13.63 0.14 14.18 0.14C14.60 0.14 14.97 0.09 15.30-0.03C15.63-0.15 15.91-0.31 16.14-0.51C16.37-0.71 16.55-0.95 16.67-1.22C16.80-1.50 16.86-1.79 16.86-2.10C16.86-2.39 16.82-2.64 16.73-2.86C16.65-3.08 16.54-3.27 16.39-3.44C16.25-3.60 16.08-3.75 15.88-3.87C15.68-3.99 15.46-4.10 15.24-4.20L14.12-4.68C13.96-4.74 13.81-4.81 13.66-4.89C13.50-4.97 13.36-5.05 13.24-5.15C13.11-5.25 13.01-5.37 12.93-5.50C12.85-5.63 12.82-5.80 12.82-5.99C12.82-6.35 12.95-6.63 13.22-6.83C13.49-7.04 13.84-7.14 14.28-7.14C14.65-7.14 14.98-7.07 15.27-6.94C15.56-6.81 15.83-6.63 16.07-6.40L16.61-7.04C16.33-7.33 15.99-7.57 15.59-7.75C15.19-7.93 14.75-8.02 14.28-8.02C13.92-8.02 13.59-7.96 13.29-7.86C12.99-7.76 12.73-7.61 12.51-7.42C12.29-7.23 12.12-7.01 11.99-6.76C11.87-6.50 11.81-6.22 11.81-5.93C11.81-5.64 11.86-5.39 11.95-5.17C12.05-4.95 12.17-4.76 12.32-4.60C12.48-4.44 12.65-4.30 12.84-4.19C13.03-4.08 13.22-3.98 13.40-3.90L14.53-3.41C14.72-3.32 14.89-3.24 15.05-3.16C15.21-3.08 15.35-2.99 15.46-2.89C15.58-2.79 15.67-2.67 15.74-2.53C15.81-2.39 15.84-2.22 15.84-2.02C15.84-1.63 15.70-1.32 15.41-1.09C15.12-0.85 14.72-0.73 14.20-0.73C13.79-0.73 13.39-0.82 13.01-1.00C12.63-1.18 12.30-1.42 12.02-1.72ZM19.80-7.03L19.80 0L20.81 0L20.81-7.03L23.18-7.03L23.18-7.87L17.42-7.87L17.42-7.03ZM27.47-3.20L25.10-3.20L25.48-4.40C25.62-4.84 25.76-5.28 25.88-5.72C26.01-6.15 26.14-6.60 26.26-7.06L26.30-7.06C26.43-6.60 26.56-6.15 26.69-5.72C26.82-5.28 26.95-4.84 27.10-4.40ZM27.72-2.40L28.46 0L29.53 0L26.87-7.87L25.74-7.87L23.08 0L24.10 0L24.85-2.40ZM30.07-3.94C30.07-3.30 30.16-2.72 30.34-2.21C30.51-1.71 30.76-1.28 31.07-0.93C31.38-0.58 31.75-0.32 32.18-0.13C32.62 0.05 33.09 0.14 33.61 0.14C34.14 0.14 34.61 0.06 35.03-0.11C35.45-0.29 35.79-0.50 36.05-0.77L36.05-4.08L33.47-4.08L33.47-3.25L35.14-3.25L35.14-1.20C34.98-1.06 34.77-0.94 34.52-0.86C34.27-0.77 34.00-0.73 33.72-0.73C33.30-0.73 32.92-0.81 32.60-0.96C32.27-1.11 32.00-1.33 31.78-1.61C31.56-1.89 31.39-2.23 31.28-2.62C31.16-3.02 31.10-3.46 31.10-3.96C31.10-4.45 31.17-4.89 31.29-5.28C31.41-5.67 31.59-6.01 31.81-6.28C32.04-6.56 32.31-6.77 32.63-6.92C32.95-7.07 33.31-7.14 33.71-7.14C34.11-7.14 34.44-7.07 34.70-6.93C34.96-6.79 35.19-6.62 35.39-6.41L35.95-7.04C35.72-7.28 35.42-7.51 35.06-7.71C34.69-7.91 34.24-8.02 33.70-8.02C33.17-8.02 32.68-7.92 32.24-7.73C31.80-7.55 31.42-7.28 31.10-6.92C30.77-6.57 30.52-6.14 30.34-5.64C30.16-5.14 30.07-4.57 30.07-3.94ZM38.93-4.14L38.93-7.07L40.25-7.07C40.86-7.07 41.34-6.96 41.66-6.76C41.99-6.55 42.16-6.18 42.16-5.66C42.16-5.15 41.99-4.77 41.66-4.52C41.34-4.27 40.86-4.14 40.25-4.14ZM42.25 0L43.38 0L41.39-3.43C41.92-3.57 42.35-3.82 42.67-4.19C42.99-4.56 43.15-5.05 43.15-5.66C43.15-6.07 43.08-6.42 42.95-6.70C42.81-6.98 42.62-7.20 42.38-7.38C42.13-7.56 41.84-7.68 41.50-7.76C41.16-7.83 40.79-7.87 40.39-7.87L37.93-7.87L37.93 0L38.93 0L38.93-3.32L40.36-3.32ZM48.13-3.20L45.77-3.20L46.14-4.40C46.28-4.84 46.42-5.28 46.55-5.72C46.68-6.15 46.80-6.60 46.92-7.06L46.97-7.06C47.10-6.60 47.22-6.15 47.35-5.72C47.48-5.28 47.62-4.84 47.76-4.40ZM48.38-2.40L49.13 0L50.20 0L47.53-7.87L46.40-7.87L43.74 0L44.76 0L45.52-2.40ZM51.31-7.87L51.31 0L52.24 0L52.24-4.33C52.24-4.68 52.22-5.07 52.19-5.50C52.16-5.92 52.13-6.31 52.10-6.66L52.15-6.66L52.78-4.91L54.30-0.79L54.86-0.79L56.38-4.91L57.01-6.66L57.06-6.66C57.03-6.31 57.00-5.92 56.97-5.50C56.94-5.07 56.93-4.68 56.93-4.33L56.93 0L57.88 0L57.88-7.87L56.70-7.87L55.19-3.65L54.64-2.04L54.59-2.04L54.01-3.65L52.49-7.87ZM62.46-7.87L62.46 0L63.46 0L63.46-3.53L66.46-3.53L66.46-4.37L63.46-4.37L63.46-7.03L67.00-7.03L67.00-7.87ZM69.38-4.14L69.38-7.07L70.70-7.07C71.32-7.07 71.79-6.96 72.12-6.76C72.45-6.55 72.61-6.18 72.61-5.66C72.61-5.15 72.45-4.77 72.12-4.52C71.79-4.27 71.32-4.14 70.70-4.14ZM72.71 0L73.84 0L71.84-3.43C72.38-3.57 72.81-3.82 73.13-4.19C73.45-4.56 73.61-5.05 73.61-5.66C73.61-6.07 73.54-6.42 73.40-6.70C73.27-6.98 73.08-7.20 72.83-7.38C72.59-7.56 72.30-7.68 71.96-7.76C71.62-7.83 71.25-7.87 70.85-7.87L68.39-7.87L68.39 0L69.38 0L69.38-3.32L70.81-3.32ZM78.26 0.14C78.76 0.14 79.21 0.05 79.63-0.14C80.04-0.34 80.39-0.61 80.69-0.97C80.99-1.32 81.23-1.75 81.39-2.26C81.55-2.77 81.64-3.34 81.64-3.97C81.64-4.60 81.55-5.16 81.39-5.66C81.23-6.16 80.99-6.58 80.69-6.93C80.39-7.28 80.04-7.55 79.63-7.73C79.21-7.92 78.76-8.02 78.26-8.02C77.77-8.02 77.31-7.92 76.90-7.74C76.49-7.56 76.14-7.29 75.84-6.94C75.54-6.59 75.31-6.17 75.15-5.67C74.99-5.17 74.90-4.60 74.90-3.97C74.90-3.34 74.99-2.77 75.15-2.26C75.31-1.75 75.54-1.32 75.84-0.97C76.14-0.61 76.49-0.34 76.90-0.14C77.31 0.05 77.77 0.14 78.26 0.14ZM78.26-0.73C77.91-0.73 77.59-0.81 77.31-0.96C77.03-1.11 76.78-1.33 76.58-1.61C76.37-1.90 76.22-2.24 76.10-2.63C75.99-3.03 75.94-3.48 75.94-3.97C75.94-4.46 75.99-4.90 76.10-5.29C76.22-5.68 76.37-6.02 76.58-6.29C76.78-6.56 77.03-6.77 77.31-6.92C77.59-7.07 77.91-7.14 78.26-7.14C78.62-7.14 78.93-7.07 79.22-6.92C79.50-6.77 79.75-6.56 79.95-6.29C80.15-6.02 80.31-5.68 80.42-5.29C80.54-4.90 80.59-4.46 80.59-3.97C80.59-3.48 80.54-3.03 80.42-2.63C80.31-2.24 80.15-1.90 79.95-1.61C79.75-1.33 79.50-1.11 79.22-0.96C78.93-0.81 78.62-0.73 78.26-0.73ZM83.33-7.87L83.33 0L84.25 0L84.25-4.33C84.25-4.68 84.24-5.07 84.20-5.50C84.17-5.92 84.14-6.31 84.12-6.66L84.17-6.66L84.79-4.91L86.32-0.79L86.88-0.79L88.39-4.91L89.03-6.66L89.08-6.66C89.04-6.31 89.01-5.92 88.99-5.50C88.96-5.07 88.94-4.68 88.94-4.33L88.94 0L89.89 0L89.89-7.87L88.72-7.87L87.20-3.65L86.65-2.04L86.60-2.04L86.03-3.65L84.50-7.87ZM94.02-3.94C94.02-3.30 94.11-2.72 94.28-2.21C94.45-1.71 94.69-1.28 95.00-0.93C95.31-0.58 95.67-0.32 96.09-0.13C96.51 0.05 96.97 0.14 97.46 0.14C97.97 0.14 98.42 0.04 98.81-0.16C99.20-0.36 99.55-0.64 99.86-1.00L99.30-1.61C99.04-1.33 98.77-1.11 98.49-0.96C98.21-0.81 97.87-0.73 97.49-0.73C97.11-0.73 96.77-0.81 96.47-0.96C96.17-1.11 95.92-1.33 95.71-1.61C95.50-1.89 95.34-2.23 95.23-2.62C95.11-3.02 95.05-3.46 95.05-3.96C95.05-4.45 95.11-4.89 95.23-5.28C95.35-5.67 95.52-6.01 95.74-6.28C95.95-6.56 96.21-6.77 96.52-6.92C96.82-7.07 97.16-7.14 97.54-7.14C97.87-7.14 98.17-7.07 98.42-6.94C98.67-6.81 98.90-6.63 99.11-6.41L99.67-7.04C99.44-7.30 99.14-7.53 98.78-7.72C98.42-7.92 98.00-8.02 97.52-8.02C97.02-8.02 96.55-7.92 96.13-7.73C95.70-7.55 95.33-7.28 95.02-6.92C94.70-6.57 94.46-6.14 94.28-5.64C94.11-5.14 94.02-4.57 94.02-3.94ZM104.68-3.20L102.31-3.20L102.68-4.40C102.83-4.84 102.96-5.28 103.09-5.72C103.22-6.15 103.34-6.60 103.46-7.06L103.51-7.06C103.64-6.60 103.77-6.15 103.90-5.72C104.02-5.28 104.16-4.84 104.30-4.40ZM104.93-2.40L105.67 0L106.74 0L104.08-7.87L102.95-7.87L100.28 0L101.30 0L102.06-2.40ZM109.01-7.03L109.01 0L110.02 0L110.02-7.03L112.39-7.03L112.39-7.87L106.63-7.87L106.63-7.03ZM113.36-1.72L112.76-1.02C113.11-0.66 113.52-0.38 113.99-0.17C114.46 0.04 114.97 0.14 115.52 0.14C115.94 0.14 116.31 0.09 116.64-0.03C116.97-0.15 117.25-0.31 117.48-0.51C117.71-0.71 117.89-0.95 118.01-1.22C118.14-1.50 118.20-1.79 118.20-2.10C118.20-2.39 118.16-2.64 118.07-2.86C117.99-3.08 117.88-3.27 117.73-3.44C117.59-3.60 117.42-3.75 117.22-3.87C117.02-3.99 116.80-4.10 116.58-4.20L115.46-4.68C115.30-4.74 115.15-4.81 115.00-4.89C114.84-4.97 114.70-5.05 114.58-5.15C114.45-5.25 114.35-5.37 114.27-5.50C114.19-5.63 114.16-5.80 114.16-5.99C114.16-6.35 114.29-6.63 114.56-6.83C114.83-7.04 115.18-7.14 115.62-7.14C115.99-7.14 116.32-7.07 116.61-6.94C116.90-6.81 117.17-6.63 117.41-6.40L117.95-7.04C117.67-7.33 117.33-7.57 116.93-7.75C116.53-7.93 116.09-8.02 115.62-8.02C115.26-8.02 114.93-7.96 114.63-7.86C114.33-7.76 114.07-7.61 113.85-7.42C113.63-7.23 113.46-7.01 113.33-6.76C113.21-6.50 113.15-6.22 113.15-5.93C113.15-5.64 113.20-5.39 113.29-5.17C113.39-4.95 113.51-4.76 113.66-4.60C113.82-4.44 113.99-4.30 114.18-4.19C114.37-4.08 114.56-3.98 114.74-3.90L115.87-3.41C116.06-3.32 116.23-3.24 116.39-3.16C116.55-3.08 116.69-2.99 116.80-2.89C116.92-2.79 117.01-2.67 117.08-2.53C117.15-2.39 117.18-2.22 117.18-2.02C117.18-1.63 117.04-1.32 116.75-1.09C116.46-0.85 116.06-0.73 115.54-0.73C115.13-0.73 114.73-0.82 114.35-1.00C113.97-1.18 113.64-1.42 113.36-1.72Z" transform="translate(-1.08, 8.016)"/>
          </g>
        </g>
      </g>
    </g>
  </g>
</svg>